<?xml version="1.0" encoding="UTF-8"?>
<svg id="a" data-name="Layer 1" xmlns="http://www.w3.org/2000/svg" viewBox="0 0 595.28 841.89">
  <defs>
    <style>
      .b {
        fill: #fff;
      }

      .c {
        fill: #227cc1;
      }

      .d {
        fill: #51ade1;
      }
    </style>
  </defs>
  <path class="d" d="M79.78,65.6v572.11c0,19.46,15.77,35.23,35.23,35.23h356.94L82.79,64.72c-.88-1.38-3.02-.75-3.02.88Z"/>
  <path class="c" d="M513.42,741.32l2.08-572.11c.07-19.46-15.65-35.29-35.11-35.36l-352.84-1.28c-1.77,0-2.85,1.95-1.9,3.44l384.74,606.18c.88,1.38,3.01.76,3.02-.87Z"/>
  <path class="b" d="M196.2,320.36l116.56-44.94,116.5,44.94s24.51,164.43-116.53,246.13c-137.98-76.6-116.53-246.13-116.53-246.13Z"/>
</svg>